<svg width="26" height="34" viewBox="0 0 26 34" fill="none" xmlns="http://www.w3.org/2000/svg">
<g filter="url(#filter0_d_3_3)">
<path d="M4.52 1.088C7.304 0.895998 9.764 0.799998 11.9 0.799998C17.828 0.799998 20.792 2.78 20.792 6.74C20.792 8.228 20.36 9.512 19.496 10.592C18.632 11.648 17.252 12.368 15.356 12.752C17.18 12.968 18.62 13.52 19.676 14.408C20.732 15.296 21.26 16.844 21.26 19.052C21.26 23.684 18.296 26 12.368 26H4.52V1.088ZM7.508 25.64H12.368C14.504 25.64 16.016 25.088 16.904 23.984C17.816 22.856 18.272 21.14 18.272 18.836C18.272 16.532 17.816 14.996 16.904 14.228C15.992 13.46 14.636 13.052 12.836 13.004H7.508V25.64ZM11.9 1.16C10.508 1.16 9.044 1.244 7.508 1.412V12.644H12.836C16.22 12.5 17.912 10.556 17.912 6.812C17.912 4.988 17.408 3.596 16.4 2.636C15.392 1.652 13.892 1.16 11.9 1.16Z" fill="#568F87"/>
</g>
<defs>
<filter id="filter0_d_3_3" x="0.519989" y="0.800003" width="24.74" height="33.2" filterUnits="userSpaceOnUse" color-interpolation-filters="sRGB">
<feFlood flood-opacity="0" result="BackgroundImageFix"/>
<feColorMatrix in="SourceAlpha" type="matrix" values="0 0 0 0 0 0 0 0 0 0 0 0 0 0 0 0 0 0 127 0" result="hardAlpha"/>
<feOffset dy="4"/>
<feGaussianBlur stdDeviation="2"/>
<feComposite in2="hardAlpha" operator="out"/>
<feColorMatrix type="matrix" values="0 0 0 0 0 0 0 0 0 0 0 0 0 0 0 0 0 0 0.25 0"/>
<feBlend mode="normal" in2="BackgroundImageFix" result="effect1_dropShadow_3_3"/>
<feBlend mode="normal" in="SourceGraphic" in2="effect1_dropShadow_3_3" result="shape"/>
</filter>
</defs>
</svg>
