<svg width="101" height="27" viewBox="0 0 101 27" fill="none" xmlns="http://www.w3.org/2000/svg">
<path d="M0.52 1.088C3.304 0.895998 5.764 0.799998 7.9 0.799998C13.828 0.799998 16.792 2.78 16.792 6.74C16.792 8.228 16.36 9.512 15.496 10.592C14.632 11.648 13.252 12.368 11.356 12.752C13.18 12.968 14.62 13.52 15.676 14.408C16.732 15.296 17.26 16.844 17.26 19.052C17.26 23.684 14.296 26 8.368 26H0.52V1.088ZM3.508 25.64H8.368C10.504 25.64 12.016 25.088 12.904 23.984C13.816 22.856 14.272 21.14 14.272 18.836C14.272 16.532 13.816 14.996 12.904 14.228C11.992 13.46 10.636 13.052 8.836 13.004H3.508V25.64ZM7.9 1.16C6.508 1.16 5.044 1.244 3.508 1.412V12.644H8.836C12.22 12.5 13.912 10.556 13.912 6.812C13.912 4.988 13.408 3.596 12.4 2.636C11.392 1.652 9.892 1.16 7.9 1.16ZM34.8393 26C33.2073 26 32.0913 25.688 31.4913 25.064C30.9393 24.536 30.6633 24.08 30.6633 23.696V22.94C29.4873 25.076 27.6033 26.144 25.0113 26.144C21.9873 26.144 20.2713 24.776 19.8633 22.04C19.8153 21.752 19.7913 21.464 19.7913 21.176C19.7913 20.864 19.8393 20.528 19.9353 20.168C20.0313 19.808 20.3073 19.412 20.7633 18.98C21.6753 18.116 23.6793 17.588 26.7753 17.396C27.5433 17.324 28.2513 17.288 28.8993 17.288C29.5473 17.288 30.1353 17.312 30.6633 17.36V11.384C30.6153 11.36 30.6153 11.252 30.6633 11.06C30.7113 10.844 30.6633 10.58 30.5193 10.268C30.3993 9.932 30.2313 9.608 30.0153 9.296C29.7993 8.984 29.4153 8.72 28.8633 8.504C28.3112 8.264 27.5913 8.144 26.7033 8.144C25.8153 8.144 24.7713 8.312 23.5713 8.648C22.3953 8.96 21.5313 9.272 20.9793 9.584L20.8353 9.332C22.9713 8.348 25.1433 7.856 27.3513 7.856C29.8233 7.856 31.4553 8.3 32.2473 9.188C32.8713 9.884 33.1833 10.616 33.1833 11.384V23.444C33.1833 24.14 33.3153 24.68 33.5793 25.064C33.8673 25.424 34.1553 25.616 34.4433 25.64L34.8393 25.712H35.9553V26H34.8393ZM25.5873 25.856C26.8593 25.856 27.9993 25.424 29.0073 24.56C30.0393 23.672 30.5913 22.82 30.6633 22.004V17.648C30.0153 17.6 29.3553 17.576 28.6833 17.576C28.0353 17.576 27.3873 17.612 26.7393 17.684C24.9153 17.9 23.7273 18.308 23.1753 18.908C22.6233 19.508 22.3473 20.336 22.3473 21.392C22.3473 21.584 22.3593 21.8 22.3833 22.04C22.5993 24.584 23.6673 25.856 25.5873 25.856ZM39.3592 8.288V8H51.8512V8.288L40.9792 25.712H49.5832C51.2392 25.712 52.2352 25.232 52.5712 24.272L52.7872 24.38C52.7872 24.476 52.7032 24.644 52.5352 24.884C52.3672 25.1 52.1752 25.28 51.9592 25.424C51.3832 25.808 50.5912 26 49.5832 26H38.4592V25.712L49.3312 8.288H39.3592ZM56.1991 8.288V8H68.6911V8.288L57.8191 25.712H66.4231C68.0791 25.712 69.0751 25.232 69.4111 24.272L69.6271 24.38C69.6271 24.476 69.5431 24.644 69.3751 24.884C69.2071 25.1 69.0151 25.28 68.7991 25.424C68.2231 25.808 67.4311 26 66.4231 26H55.2991V25.712L66.1711 8.288H56.1991ZM87.1869 26C85.5549 26 84.4389 25.688 83.8389 25.064C83.2869 24.536 83.0109 24.08 83.0109 23.696V22.94C81.8349 25.076 79.9509 26.144 77.3589 26.144C74.3349 26.144 72.6189 24.776 72.2109 22.04C72.1629 21.752 72.1389 21.464 72.1389 21.176C72.1389 20.864 72.1869 20.528 72.2829 20.168C72.3789 19.808 72.6549 19.412 73.1109 18.98C74.0229 18.116 76.0269 17.588 79.1229 17.396C79.8909 17.324 80.5989 17.288 81.2469 17.288C81.8949 17.288 82.4829 17.312 83.0109 17.36V11.384C82.9629 11.36 82.9629 11.252 83.0109 11.06C83.0589 10.844 83.0109 10.58 82.8669 10.268C82.7469 9.932 82.5789 9.608 82.3629 9.296C82.1469 8.984 81.7629 8.72 81.2109 8.504C80.6589 8.264 79.9389 8.144 79.0509 8.144C78.1629 8.144 77.1189 8.312 75.9189 8.648C74.7429 8.96 73.8789 9.272 73.3269 9.584L73.1829 9.332C75.3189 8.348 77.4909 7.856 79.6989 7.856C82.1709 7.856 83.8029 8.3 84.5949 9.188C85.2189 9.884 85.5309 10.616 85.5309 11.384V23.444C85.5309 24.14 85.6629 24.68 85.9269 25.064C86.2149 25.424 86.5029 25.616 86.7909 25.64L87.1869 25.712H88.3029V26H87.1869ZM77.9349 25.856C79.2069 25.856 80.3469 25.424 81.3549 24.56C82.3869 23.672 82.9389 22.82 83.0109 22.004V17.648C82.3629 17.6 81.7029 17.576 81.0309 17.576C80.3829 17.576 79.7349 17.612 79.0869 17.684C77.2629 17.9 76.0749 18.308 75.5229 18.908C74.9709 19.508 74.6949 20.336 74.6949 21.392C74.6949 21.584 74.7069 21.8 74.7309 22.04C74.9469 24.584 76.0149 25.856 77.9349 25.856ZM97.1598 9.548V8.792C96.0798 9.224 95.0958 10.1 94.2078 11.42C93.3198 12.716 92.8518 13.94 92.8038 15.092V26H90.2838V8H92.8038V13.724C93.1878 12.332 93.9198 11.024 94.9998 9.8C96.0798 8.552 97.3038 7.904 98.6718 7.856H98.8158C99.2958 7.856 99.6918 8.024 100.004 8.36C100.34 8.672 100.508 9.068 100.508 9.548C100.508 10.028 100.34 10.424 100.004 10.736C99.6918 11.048 99.2958 11.204 98.8158 11.204C98.3358 11.204 97.9398 11.048 97.6278 10.736C97.3158 10.424 97.1598 10.028 97.1598 9.548Z" fill="#568F87"/>
</svg>
