<svg id="visual" viewBox="0 0 960 540" width="960" height="540" xmlns="http://www.w3.org/2000/svg" xmlns:xlink="http://www.w3.org/1999/xlink" version="1.1"><rect x="0" y="0" width="960" height="540" fill="#FFFFFF"></rect><path d="M0 163L22.8 168C45.7 173 91.3 183 137 180.2C182.7 177.3 228.3 161.7 274 144.2C319.7 126.7 365.3 107.3 411.2 108.3C457 109.3 503 130.7 548.8 131C594.7 131.3 640.3 110.7 686 112.7C731.7 114.7 777.3 139.3 823 144.8C868.7 150.3 914.3 136.7 937.2 129.8L960 123L960 0L937.2 0C914.3 0 868.7 0 823 0C777.3 0 731.7 0 686 0C640.3 0 594.7 0 548.8 0C503 0 457 0 411.2 0C365.3 0 319.7 0 274 0C228.3 0 182.7 0 137 0C91.3 0 45.7 0 22.8 0L0 0Z" fill="#69fadb"></path><path d="M0 126L22.8 130.3C45.7 134.7 91.3 143.3 137 140.5C182.7 137.7 228.3 123.3 274 114.7C319.7 106 365.3 103 411.2 109.3C457 115.7 503 131.3 548.8 140.8C594.7 150.3 640.3 153.7 686 144C731.7 134.3 777.3 111.7 823 115.2C868.7 118.7 914.3 148.3 937.2 163.2L960 178L960 0L937.2 0C914.3 0 868.7 0 823 0C777.3 0 731.7 0 686 0C640.3 0 594.7 0 548.8 0C503 0 457 0 411.2 0C365.3 0 319.7 0 274 0C228.3 0 182.7 0 137 0C91.3 0 45.7 0 22.8 0L0 0Z" fill="#54e0c0"></path><path d="M0 59L22.8 73.5C45.7 88 91.3 117 137 125.8C182.7 134.7 228.3 123.3 274 119.7C319.7 116 365.3 120 411.2 120.2C457 120.3 503 116.7 548.8 104.7C594.7 92.7 640.3 72.3 686 70C731.7 67.7 777.3 83.3 823 93.3C868.7 103.3 914.3 107.7 937.2 109.8L960 112L960 0L937.2 0C914.3 0 868.7 0 823 0C777.3 0 731.7 0 686 0C640.3 0 594.7 0 548.8 0C503 0 457 0 411.2 0C365.3 0 319.7 0 274 0C228.3 0 182.7 0 137 0C91.3 0 45.7 0 22.8 0L0 0Z" fill="#3ec6a5"></path><path d="M0 108L22.8 95.3C45.7 82.7 91.3 57.3 137 49C182.7 40.7 228.3 49.3 274 52C319.7 54.7 365.3 51.3 411.2 53.5C457 55.7 503 63.3 548.8 61.7C594.7 60 640.3 49 686 55C731.7 61 777.3 84 823 94.3C868.7 104.7 914.3 102.3 937.2 101.2L960 100L960 0L937.2 0C914.3 0 868.7 0 823 0C777.3 0 731.7 0 686 0C640.3 0 594.7 0 548.8 0C503 0 457 0 411.2 0C365.3 0 319.7 0 274 0C228.3 0 182.7 0 137 0C91.3 0 45.7 0 22.8 0L0 0Z" fill="#26ad8c"></path><path d="M0 41L22.8 43.3C45.7 45.7 91.3 50.3 137 54.7C182.7 59 228.3 63 274 59.5C319.7 56 365.3 45 411.2 40C457 35 503 36 548.8 40.5C594.7 45 640.3 53 686 59.3C731.7 65.7 777.3 70.3 823 72C868.7 73.7 914.3 72.3 937.2 71.7L960 71L960 0L937.2 0C914.3 0 868.7 0 823 0C777.3 0 731.7 0 686 0C640.3 0 594.7 0 548.8 0C503 0 457 0 411.2 0C365.3 0 319.7 0 274 0C228.3 0 182.7 0 137 0C91.3 0 45.7 0 22.8 0L0 0Z" fill="#009473"></path></svg>